<svg width="24" height="25" viewBox="0 0 24 25" fill="none" xmlns="http://www.w3.org/2000/svg">
<g clip-path="url(#clip0_100_268)">
<path d="M8.36061 1.53943C5.96264 2.37131 3.89463 3.95024 2.46035 6.04431C1.02606 8.13838 0.301099 10.6372 0.391944 13.1737C0.48279 15.7103 1.38466 18.1508 2.96507 20.1369C4.54549 22.123 6.72115 23.55 9.17249 24.2082C11.1598 24.721 13.242 24.7435 15.24 24.2738C17.05 23.8673 18.7233 22.9976 20.0962 21.7501C21.5251 20.412 22.5623 18.7097 23.0962 16.8263C23.6764 14.7782 23.7797 12.6243 23.3981 10.5301H12.2381V15.1594H18.7012C18.5721 15.8978 18.2953 16.6025 17.8874 17.2314C17.4795 17.8602 16.949 18.4004 16.3275 18.8194C15.5384 19.3417 14.6487 19.693 13.7156 19.8507C12.7799 20.0247 11.8201 20.0247 10.8844 19.8507C9.9359 19.6548 9.03869 19.2634 8.24999 18.7013C6.98277 17.8043 6.03126 16.5299 5.53124 15.0601C5.02291 13.5626 5.02291 11.9393 5.53124 10.4419C5.88716 9.39234 6.47555 8.43669 7.25249 7.64631C8.1416 6.72521 9.26724 6.0668 10.5059 5.74333C11.7446 5.41985 13.0484 5.4438 14.2744 5.81256C15.2321 6.10641 16.1079 6.62008 16.8319 7.31256C17.5606 6.58756 18.2881 5.86068 19.0144 5.13193C19.3894 4.74006 19.7981 4.36693 20.1675 3.96568C19.0622 2.93728 17.765 2.137 16.35 1.61068C13.7732 0.675038 10.9537 0.649894 8.36061 1.53943Z" fill="white"/>
<path d="M8.36064 1.53937C10.9535 0.649224 13.773 0.673707 16.35 1.60874C17.7653 2.13864 19.0619 2.94277 20.1656 3.97499C19.7906 4.37624 19.395 4.75124 19.0125 5.14124C18.285 5.86749 17.5581 6.59124 16.8319 7.31249C16.1079 6.62001 15.2321 6.10635 14.2744 5.81249C13.0488 5.44244 11.7451 5.41711 10.5061 5.73926C9.26706 6.06141 8.14073 6.71861 7.25064 7.63874C6.4737 8.42912 5.88532 9.38477 5.52939 10.4344L1.64252 7.42499C3.03378 4.66604 5.44267 2.55566 8.36064 1.53937Z" fill="#E33629"/>
<path d="M0.611279 10.4063C0.820041 9.37087 1.16689 8.36816 1.64253 7.42505L5.5294 10.4419C5.02107 11.9393 5.02107 13.5626 5.5294 15.06C4.2344 16.06 2.93878 17.065 1.64253 18.075C0.452186 15.7056 0.0891526 13.006 0.611279 10.4063Z" fill="#F8BD00"/>
<path d="M12.2381 10.5281H23.3981C23.7797 12.6223 23.6764 14.7762 23.0963 16.8243C22.5623 18.7077 21.5252 20.41 20.0963 21.7481C18.8419 20.7693 17.5819 19.7981 16.3275 18.8193C16.9494 18.3998 17.4802 17.8591 17.8881 17.2296C18.296 16.6 18.5726 15.8946 18.7013 15.1556H12.2381C12.2363 13.6143 12.2381 12.0712 12.2381 10.5281Z" fill="#587DBD"/>
<path d="M1.64062 18.0751C2.93687 17.0751 4.2325 16.0701 5.5275 15.0601C6.02851 16.5304 6.98138 17.8049 8.25 18.7013C9.04116 19.2607 9.9403 19.649 10.89 19.8413C11.8257 20.0153 12.7855 20.0153 13.7213 19.8413C14.6543 19.6836 15.544 19.3323 16.3331 18.8101C17.5875 19.7888 18.8475 20.7601 20.1019 21.7388C18.7292 22.987 17.0558 23.8573 15.2456 24.2644C13.2476 24.7341 11.1655 24.7116 9.17813 24.1988C7.60632 23.7791 6.13814 23.0393 4.86563 22.0257C3.51886 20.9562 2.41882 19.6087 1.64062 18.0751Z" fill="#319F43"/>
</g>
<defs>
<clipPath id="clip0_100_268">
<rect width="24" height="24" fill="white" transform="translate(0 0.75)"/>
</clipPath>
</defs>
</svg>
