<svg width="24" height="24" viewBox="0 0 24 24" fill="none" xmlns="http://www.w3.org/2000/svg">
<g clip-path="url(#clip0_339_4368)">
<path d="M22.8 0H1.2C0.519984 0 0 0.519984 0 1.2V19.6V22.8C0 23.48 0.519984 24 1.2 24H22.8C23.48 24 24 23.48 24 22.8V19.6V1.2C24 0.519984 23.48 0 22.8 0ZM1.2 0.800016H22.8C23.04 0.800016 23.2 0.96 23.2 1.2V19.2H0.800016V1.2C0.800016 0.96 0.96 0.800016 1.2 0.800016ZM23.2 22.8C23.2 23.04 23.04 23.2 22.8 23.2H1.2C0.96 23.2 0.800016 23.04 0.800016 22.8V20H23.2L23.2 22.8Z" fill="#FFD700"/>
<path d="M10.2 13.1601C10.28 13.2001 10.32 13.2001 10.4 13.2001C10.48 13.2001 10.56 13.2001 10.6 13.1601L14.6 10.7601C14.72 10.6801 14.8 10.5601 14.8 10.4001C14.8 10.2401 14.72 10.1201 14.6 10.0401L10.6 7.64009C10.48 7.56007 10.32 7.56007 10.2 7.64009C10.08 7.72011 10 7.84011 10 8.00009V12.8001C9.99998 12.9601 10.08 13.0801 10.2 13.1601ZM10.8 8.72009L13.64 10.4401L10.8 12.1201V8.72009Z" fill="#FFD700"/>
<path d="M2.00002 22.8001C2.24002 22.8001 2.40001 22.6401 2.40001 22.4001V20.8001C2.40001 20.5601 2.24002 20.4001 2.00002 20.4001C1.76002 20.4001 1.60004 20.5601 1.60004 20.8001V22.4001C1.59999 22.6401 1.76002 22.8001 2.00002 22.8001Z" fill="#FFD700"/>
<path d="M3.2 22.8001C3.44 22.8001 3.59999 22.6401 3.59999 22.4001V20.8001C3.59999 20.5601 3.44 20.4001 3.2 20.4001C2.96 20.4001 2.80002 20.5601 2.80002 20.8001V22.4001C2.79997 22.6401 2.96 22.8001 3.2 22.8001Z" fill="#FFD700"/>
<path d="M4.80001 21.9999H22C22.24 21.9999 22.4 21.8399 22.4 21.5999C22.4 21.3599 22.24 21.2 22 21.2H4.80001C4.56001 21.2 4.40002 21.3599 4.40002 21.5999C4.40002 21.8399 4.56001 21.9999 4.80001 21.9999Z" fill="#FFD700"/>
</g>
<defs>
<clipPath id="clip0_339_4368">
<rect width="24" height="24" fill="white"/>
</clipPath>
</defs>
</svg>
